<svg width="62" height="62" viewBox="0 0 62 62" fill="none" xmlns="http://www.w3.org/2000/svg">
<path d="M31 5.16663C16.74 5.16663 5.16663 16.74 5.16663 31C5.16663 45.26 16.74 56.8333 31 56.8333C45.26 56.8333 56.8333 45.26 56.8333 31C56.8333 16.74 45.26 5.16663 31 5.16663ZM31 12.9166C35.2883 12.9166 38.75 16.3783 38.75 20.6666C38.75 24.955 35.2883 28.4166 31 28.4166C26.7116 28.4166 23.25 24.955 23.25 20.6666C23.25 16.3783 26.7116 12.9166 31 12.9166ZM31 49.6C24.5416 49.6 18.8325 46.2933 15.5 41.2816C15.5775 36.1408 25.8333 33.325 31 33.325C36.1408 33.325 46.4225 36.1408 46.5 41.2816C43.1675 46.2933 37.4583 49.6 31 49.6Z" fill="#039BE5"/>
</svg>
